<svg width="79" height="56" viewBox="0 0 79 56" fill="none" xmlns="http://www.w3.org/2000/svg">
<rect x="7" y="16" width="49" height="32" rx="3" fill="#E45858"/>
<rect x="5" y="15" width="54" height="15" rx="3" fill="#E45858"/>
<rect x="19" y="10" width="4" height="15" rx="2" fill="#E45858"/>
<rect x="42" y="9" width="4" height="15" rx="2" fill="#E45858"/>
<g filter="url(#filter4_d)">
<path d="M55.0004 14H47.0004V10C47.0004 9.73478 46.8951 9.48043 46.7075 9.29289C46.52 9.10536 46.2656 9 46.0004 9H43.9304C43.687 7.06798 42.7473 5.29107 41.2874 4.0024C39.8275 2.71372 37.9477 2.00177 36.0004 2H28.0004C26.0531 2.00177 24.1733 2.71372 22.7135 4.0024C21.2536 5.29107 20.3138 7.06798 20.0704 9H18.0004C17.7352 9 17.4809 9.10536 17.2933 9.29289C17.1058 9.48043 17.0004 9.73478 17.0004 10V14H9.00042C7.67434 14 6.40257 14.5268 5.46489 15.4645C4.52721 16.4021 4.00042 17.6739 4.00042 19V30C3.99377 30.2284 4.06556 30.4523 4.20384 30.6342C4.34212 30.8162 4.53855 30.9452 4.76042 31L6.00042 31.3V45C6.00042 46.3261 6.52721 47.5979 7.46489 48.5355C8.40257 49.4732 9.67434 50 11.0004 50H53.0004C54.3265 50 55.5983 49.4732 56.536 48.5355C57.4736 47.5979 58.0004 46.3261 58.0004 45V31.28L59.2404 31C59.4623 30.9452 59.6587 30.8162 59.797 30.6342C59.9353 30.4523 60.0071 30.2284 60.0004 30V19C60.0004 17.6739 59.4736 16.4021 58.536 15.4645C57.5983 14.5268 56.3265 14 55.0004 14ZM42.0004 11H45.0004V19H42.0004V11ZM28.0004 4H36.0004C37.4173 4.00144 38.788 4.50425 39.8696 5.41939C40.9513 6.33452 41.6743 7.60294 41.9104 9H41.0004C40.7352 9 40.4809 9.10536 40.2933 9.29289C40.1058 9.48043 40.0004 9.73478 40.0004 10V14H24.0004V10C24.0004 9.73478 23.8951 9.48043 23.7075 9.29289C23.52 9.10536 23.2656 9 23.0004 9H22.0904C22.3266 7.60294 23.0495 6.33452 24.1312 5.41939C25.2129 4.50425 26.5835 4.00144 28.0004 4V4ZM19.0004 11H22.0004V19H19.0004V11ZM9.00042 16H17.0004V20C17.0004 20.2652 17.1058 20.5196 17.2933 20.7071C17.4809 20.8946 17.7352 21 18.0004 21H23.0004C23.2656 21 23.52 20.8946 23.7075 20.7071C23.8951 20.5196 24.0004 20.2652 24.0004 20V16H40.0004V20C40.0004 20.2652 40.1058 20.5196 40.2933 20.7071C40.4809 20.8946 40.7352 21 41.0004 21H46.0004C46.2656 21 46.52 20.8946 46.7075 20.7071C46.8951 20.5196 47.0004 20.2652 47.0004 20V16H55.0004C55.7961 16 56.5591 16.3161 57.1217 16.8787C57.6844 17.4413 58.0004 18.2044 58.0004 19V25.21L34.0604 31H30.2604L6.00042 25.21V19C6.00042 18.2044 6.3165 17.4413 6.8791 16.8787C7.44171 16.3161 8.20477 16 9.00042 16V16ZM56.0004 45C56.0004 45.7956 55.6844 46.5587 55.1217 47.1213C54.5591 47.6839 53.7961 48 53.0004 48H11.0004C10.2048 48 9.44171 47.6839 8.8791 47.1213C8.31649 46.5587 8.00042 45.7956 8.00042 45V31.76L29.4304 37H29.6704H34.6704H34.9104L56.0004 31.77V45ZM34.5404 35H29.7904L6.00042 29.21V27.27L29.9104 33H30.1404H34.1404H34.3704L58.0004 27.27V29.22L34.5404 35Z" fill="#2B2C34"/>
</g>
<defs>
<filter id="filter4_d" x="0" y="0" width="64.0008" height="56" filterUnits="userSpaceOnUse" color-interpolation-filters="sRGB">
<feFlood flood-opacity="0" result="BackgroundImageFix"/>
<feColorMatrix in="SourceAlpha" type="matrix" values="0 0 0 0 0 0 0 0 0 0 0 0 0 0 0 0 0 0 127 0"/>
<feOffset dy="2"/>
<feGaussianBlur stdDeviation="2"/>
<feColorMatrix type="matrix" values="0 0 0 0 0 0 0 0 0 0 0 0 0 0 0 0 0 0 0.1 0"/>
<feBlend mode="normal" in2="BackgroundImageFix" result="effect1_dropShadow"/>
<feBlend mode="normal" in="SourceGraphic" in2="effect1_dropShadow" result="shape"/>
</filter>
</defs>
</svg>
