<svg width="50" height="41" viewBox="0 0 50 41" fill="none" xmlns="http://www.w3.org/2000/svg">
<g filter="url(#filter1_d)">
<path d="M9.8 4H40.8C43.5 4 45.6 6.2 45.6 8.8V28.2C45.6 30.9 43.4 33 40.8 33H9.8C7.2 33 5 30.9 5 28.2V8.8C5 6.1 7.2 4 9.8 4Z" fill="#FFFFFE"/>
<path d="M45 29.2001V7.70005C45 6.90005 44.7 6.10005 44.3 5.50005L44.1 5.10005L43.8 5.40005L31 18.1L30.9 18.2V18.1L30.3 18.7L28.2 20.9C27.4 21.8 26.3 22.2001 25.2 22.2001C24.1 22.2001 23 21.7 22.2 20.9L20.1 18.7L19.5 18.1V18.2L6.89999 5.50005L6.59999 5.20005L6.39999 5.50005C5.89999 6.10005 5.69999 6.90005 5.69999 7.70005V8.10005L5.79999 29.3C5.79999 30 5.99999 30.7 6.29999 31.3L6.49999 31.7001L6.79999 31.4L19.3 18.8H19.5V19L6.99999 31.7001L6.79999 31.9L6.99999 32.2001C7.69999 32.9001 8.69999 33.3 9.69999 33.3H41C42.1 33.3 43.1 32.9001 43.7 32.2001L43.9 32L43.7 31.8L31.1 19V18.8M31.1 18.7H31.4L43.9 31.3L44.2 31.6L44.4 31.2001C44.7 30.6001 44.9 29.9001 44.9 29.2001M43.6 5.10005L43.9 4.80005L43.6 4.60005C42.9 4.10005 42 3.70005 41 3.70005H9.69999C8.69999 3.70005 7.79999 4.00005 7.09999 4.60005L6.79999 4.90005L7.09999 5.20005L22.5 20.7001C24 22.2001 26.6 22.2001 28.1 20.7001L43.6 5.10005ZM9.69999 3.30005H41C43.4 3.30005 45.4 5.20005 45.4 7.70005V29.3C45.4 31.7 43.4 33.7001 41 33.7001H9.69999C7.29999 33.7001 5.29999 31.7 5.29999 29.3V7.70005C5.29999 5.30005 7.29999 3.30005 9.69999 3.30005Z" stroke="#2B2C34" stroke-width="0.6781"/>
<path d="M45.1 8.00005V7.70005C45.1 6.90005 44.9 6.10005 44.4 5.50005L44.2 5.20005L43.9 5.50005L31.1 18.2V18.1L30.5 18.7L28.4 20.9C27.6 21.8 26.5 22.2001 25.4 22.2001C24.3 22.2001 23.2 21.7 22.4 20.9L20.3 18.7L19.7 18.1V18.2L19.6 18.1L7 5.40005L6.7 5.10005L6.5 5.50005C6.1 6.10005 5.8 6.90005 5.8 7.70005L5.9 29.2001C5.9 29.9001 6.1 30.6001 6.4 31.2001L6.6 31.6L6.9 31.3L19.4 18.7H19.7V19L7.1 31.7001L6.9 31.9L7.1 32.1C7.8 32.8 8.8 33.2001 9.8 33.2001H41.1C42.1 33.2001 43.1 32.8 43.8 32.1L44.1 31.9L43.9 31.7001L31.3 19V18.8H31.5L44 31.4L44.3 31.7001L44.5 31.3C44.8 30.7 45 30 45 29.3V8.10005H45.1M22.7 20.7001C24.2 22.2001 26.8 22.2001 28.3 20.7001L43.7 5.10005L44 4.90005L43.7 4.70005C43 4.10005 42.1 3.80005 41.1 3.80005H9.8C8.8 3.80005 7.9 4.10005 7.2 4.70005L7 4.90005L7.3 5.20005L22.7 20.7001ZM45.5 7.70005V29.3C45.5 31.7 43.6 33.7001 41.1 33.7001H9.9C7.5 33.7001 5.5 31.8 5.5 29.3V7.70005C5.5 5.30005 7.4 3.30005 9.9 3.30005H41.2C43.5 3.30005 45.5 5.30005 45.5 7.70005Z" stroke="#2B2C34" stroke-width="0.6781"/>
</g>
<defs>
<filter id="filter1_d" x="-3" y="-1" width="57" height="47" filterUnits="userSpaceOnUse" color-interpolation-filters="sRGB">
<feFlood flood-opacity="0" result="BackgroundImageFix"/>
<feColorMatrix in="SourceAlpha" type="matrix" values="0 0 0 0 0 0 0 0 0 0 0 0 0 0 0 0 0 0 127 0"/>
<feOffset dy="2"/>
<feGaussianBlur stdDeviation="2"/>
<feColorMatrix type="matrix" values="0 0 0 0 0 0 0 0 0 0 0 0 0 0 0 0 0 0 0.1 0"/>
<feBlend mode="normal" in2="BackgroundImageFix" result="effect1_dropShadow"/>
<feBlend mode="normal" in="SourceGraphic" in2="effect1_dropShadow" result="shape"/>
</filter>
</defs>
</svg>
