<svg width="55" height="56" viewBox="0 0 55 56" fill="none" xmlns="http://www.w3.org/2000/svg">
<rect x="9" y="1" width="29" height="35" fill="white"/>
<path d="M23 12L29.0622 21H16.9378L23 12Z" fill="#E45858"/>
<rect x="2" y="32" width="16" height="17" fill="#68F2D2"/>
<rect x="19" y="37" width="17" height="17" fill="#68F2D2"/>
<path d="M23 30L16.9378 21H29.0622L23 30Z" fill="#E45858"/>
<path d="M55 41.2361H53.0496C53.2168 37.2239 51.9352 33.769 49.3161 31.4843C48.2016 30.537 46.3627 28.921 46.307 20.8967C48.5917 19.4478 50.0962 16.8845 50.0962 13.9311C50.0962 9.3617 46.3627 5.6839 41.849 5.6839C41.0689 5.6839 40.3445 5.79535 39.6201 6.01825V0H6.68693V30.5927H0V50.4306H17.6089V55.1672H37.4468V47.7558H54.9443L55 41.2361ZM47.8116 33.156C49.9291 34.9949 50.9321 37.8369 50.7649 41.2361H37.5025V35.3293H33.9362C34.382 34.6049 35.1064 33.7133 35.7751 33.156L35.998 32.9889C37.3354 31.8186 39.3414 30.0912 39.5643 21.8997C40.2888 22.1226 41.0132 22.234 41.7933 22.234C42.5735 22.234 43.3536 22.1226 44.0223 21.8997C44.3009 30.0355 46.4742 31.9858 47.8116 33.156ZM8.91591 2.22898H37.3354V6.96555C35.0507 8.41439 33.5461 10.9777 33.5461 13.9311C33.5461 16.8288 35.0507 19.3921 37.3354 20.8967C37.2796 28.921 35.6079 30.3698 34.4934 31.3171L34.2705 31.4843C33.6575 32.0415 32.0415 33.7133 31.4286 35.3293H19.8379V30.5927H8.91591V2.22898ZM2.22898 48.2016V32.8217H17.6089V35.3293V48.2016H2.22898ZM35.2736 52.9382H19.8379V37.5583H35.2178V41.2361V47.7558V52.9382H35.2736Z" fill="#2B2C34"/>
<path d="M31.4286 20.5066L23.1257 8.86023L14.8227 20.5066L23.1257 32.153L31.4286 20.5066ZM23.1257 12.7052L28.6981 20.5066L23.1257 28.3081L17.5532 20.5066L23.1257 12.7052Z" fill="#2B2C34"/>
<path d="M6.74263 35.3293C5.73959 35.3293 4.95944 36.1095 4.95944 37.1125C4.95944 38.1156 5.73959 38.8957 6.74263 38.8957C7.74567 38.8957 8.52581 38.1156 8.52581 37.1125C8.52581 36.1095 7.74567 35.3293 6.74263 35.3293Z" fill="#6246EA"/>
<path d="M13.3739 35.3293C12.3708 35.3293 11.5907 36.1095 11.5907 37.1125C11.5907 38.1156 12.3708 38.8957 13.3739 38.8957C14.3769 38.8957 15.1571 38.1156 15.1571 37.1125C15.1571 36.1095 14.3212 35.3293 13.3739 35.3293Z" fill="#6246EA"/>
<path d="M6.74263 41.9048C5.73959 41.9048 4.95944 42.6849 4.95944 43.688C4.95944 44.691 5.73959 45.4711 6.74263 45.4711C7.74567 45.4711 8.52581 44.691 8.52581 43.688C8.52581 42.7406 7.74567 41.9048 6.74263 41.9048Z" fill="#6246EA"/>
<path d="M13.3739 41.9048C12.3708 41.9048 11.5907 42.6849 11.5907 43.688C11.5907 44.691 12.3708 45.4711 13.3739 45.4711C14.3769 45.4711 15.1571 44.691 15.1571 43.688C15.1571 42.7406 14.3212 41.9048 13.3739 41.9048Z" fill="#6246EA"/>
<path d="M24.9088 40.7345C23.9615 40.7345 23.2371 41.4589 23.2371 42.4062C23.2371 43.3535 23.9615 44.078 24.9088 44.078C25.8561 44.078 26.5805 43.3535 26.5805 42.4062C26.5805 41.4589 25.8004 40.7345 24.9088 40.7345Z" fill="#6246EA"/>
<path d="M30.3698 46.2512C29.4225 46.2512 28.6981 46.9756 28.6981 47.923C28.6981 48.8703 29.4225 49.5947 30.3698 49.5947C31.3171 49.5947 32.0415 48.8703 32.0415 47.923C32.0415 46.9756 31.3171 46.2512 30.3698 46.2512Z" fill="#6246EA"/>
<ellipse cx="41.65" cy="13.7" rx="8.65" ry="8.7" fill="#2B2C34"/>
<rect x="39" y="21" width="6" height="23" fill="#2B2C34"/>
<rect x="41" y="28" width="6" height="17" fill="#2B2C34"/>
<rect x="37" y="27" width="6" height="17" fill="#2B2C34"/>
<rect x="33" y="33" width="6" height="4" fill="#2B2C34"/>
<rect x="36" y="31" width="6" height="4" fill="#2B2C34"/>
<rect x="43" y="32" width="6" height="4" fill="#2B2C34"/>
<rect x="45" y="34" width="6" height="4" fill="#2B2C34"/>
<rect x="46" y="38" width="6" height="4" fill="#2B2C34"/>
</svg>
