<svg width="295" height="130" viewBox="0 0 295 130" fill="none" xmlns="http://www.w3.org/2000/svg">
<g clip-path="url(#clip0)">
<path d="M97.7486 130L269.523 122.889L294.999 3.08057L120.631 4.49731L94.5737 129.929" fill="url(#paint0_linear)"/>
<path d="M196.988 81.2376C202.739 81.2376 207.401 76.296 207.401 70.2001C207.401 64.1043 202.739 59.1627 196.988 59.1627C191.237 59.1627 186.575 64.1043 186.575 70.2001C186.575 76.296 191.237 81.2376 196.988 81.2376Z" fill="white"/>
<path d="M96.2351 121.126L2.46824 121.027C2.19425 121.026 1.92791 121.118 1.71347 121.289C1.49902 121.46 1.34937 121.699 1.28932 121.966L0.0281046 127.606C-0.0104714 127.781 -0.00931679 127.962 0.0314515 128.137C0.0722197 128.311 0.151592 128.474 0.263688 128.614C0.375783 128.754 0.517751 128.866 0.67913 128.944C0.840509 129.021 1.01715 129.061 1.19608 129.061L94.6121 129.918C94.8816 129.921 95.1444 129.834 95.3583 129.669C95.5721 129.505 95.7245 129.273 95.791 129.012L97.4031 122.614C97.4475 122.437 97.4507 122.252 97.4127 122.073C97.3746 121.895 97.2962 121.727 97.1834 121.584C97.0707 121.44 96.9266 121.324 96.7623 121.245C96.5979 121.165 96.4176 121.125 96.2351 121.126Z" fill="url(#paint1_linear)"/>
<path d="M117.758 1.2136L292.131 2.22909e-05C292.255 -0.000891545 292.378 0.0263034 292.49 0.0795557C292.602 0.132808 292.701 0.210737 292.778 0.307531L295.01 3.08063L121.322 4.48639C121.131 4.48836 120.947 4.55685 120.801 4.68009C120.654 4.80333 120.556 4.97366 120.521 5.16182L97.8912 129.292C97.8559 129.485 97.7524 129.66 97.5995 129.784C97.4466 129.908 97.2543 129.973 97.0577 129.967L95.5169 129.923C95.3991 129.92 95.2833 129.892 95.1774 129.84C95.0715 129.788 94.978 129.714 94.9031 129.623C94.8282 129.532 94.7738 129.426 94.7434 129.312C94.7131 129.198 94.7076 129.079 94.7273 128.962L116.327 2.44364C116.378 2.1007 116.551 1.78771 116.814 1.56187C117.076 1.33602 117.411 1.21241 117.758 1.2136Z" fill="url(#paint2_linear)"/>
</g>
<defs>
<linearGradient id="paint0_linear" x1="0.000753325" y1="66.5375" x2="294.994" y2="66.5375" gradientUnits="userSpaceOnUse">
<stop stop-color="#E5A4ED"/>
<stop offset="1" stop-color="#6246EA"/>
</linearGradient>
<linearGradient id="paint1_linear" x1="0.000695337" y1="125.475" x2="97.4415" y2="125.475" gradientUnits="userSpaceOnUse">
<stop stop-color="#E5A4ED"/>
<stop offset="1" stop-color="#7A5BF5"/>
</linearGradient>
<linearGradient id="paint2_linear" x1="94.7163" y1="64.9945" x2="294.999" y2="64.9945" gradientUnits="userSpaceOnUse">
<stop stop-color="#E5A4ED"/>
<stop offset="1" stop-color="#6246EA"/>
</linearGradient>
<clipPath id="clip0">
<rect width="295" height="130" fill="white"/>
</clipPath>
</defs>
</svg>
