<svg width="42" height="56" viewBox="0 0 42 56" fill="none" xmlns="http://www.w3.org/2000/svg">
<g filter="url(#filter0_d)">
<path d="M32.8851 21.6267H31.5648V13.589C31.5648 7.74991 26.8258 3 21.0006 3C15.1742 3 10.4346 7.74991 10.4346 13.589V21.6267H9.11429C6.84213 21.6267 5 23.4722 5 25.7499V44.8768C5 47.1539 6.84213 49 9.11429 49H32.8851C35.1573 49 37 47.1539 37 44.8768V25.7499C37 23.4722 35.1573 21.6267 32.8851 21.6267ZM14.1312 13.589C14.1312 9.793 17.2129 6.7046 21.0006 6.7046C24.7871 6.7046 27.8682 9.793 27.8682 13.589V21.6267H14.1312V13.589ZM23.1052 35.1047V40.2528C23.1052 41.4179 22.1632 42.362 21 42.362C19.8374 42.362 18.8954 41.4179 18.8954 40.2528V35.1047C17.9097 34.4304 17.2628 33.2956 17.2628 32.0101C17.2628 29.9405 18.9361 28.2635 21 28.2635C23.0639 28.2635 24.7372 29.9411 24.7372 32.0101C24.7372 33.2956 24.0903 34.4292 23.1052 35.1047Z" fill="#68F2D2"/>
<path d="M22.9073 34.816L22.7552 34.9203V35.1047V40.2528C22.7552 41.2253 21.9692 42.012 21 42.012C20.0314 42.012 19.2454 41.2253 19.2454 40.2528V35.1047V34.92L19.093 34.8158C18.1987 34.2041 17.6128 33.1754 17.6128 32.0101C17.6128 30.133 19.1302 28.6135 21 28.6135C22.8698 28.6135 24.3872 30.1335 24.3872 32.0101C24.3872 33.1752 23.8014 34.2029 22.9073 34.816ZM32.8851 21.2767H31.9148V13.589C31.9148 7.55738 27.0199 2.65 21.0006 2.65C14.9802 2.65 10.0846 7.55733 10.0846 13.589V21.2767H9.11429C6.64814 21.2767 4.65 23.2796 4.65 25.7499V44.8768C4.65 47.3465 6.64811 49.35 9.11429 49.35H32.8851C35.3512 49.35 37.35 47.3465 37.35 44.8768V25.7499C37.35 23.2795 35.3512 21.2767 32.8851 21.2767ZM14.4812 13.589C14.4812 9.98558 17.4069 7.0546 21.0006 7.0546C24.593 7.0546 27.5182 9.9855 27.5182 13.589V21.2767H14.4812V13.589Z" stroke="#2B2C34" stroke-width="0.7"/>
</g>
<defs>
<filter id="filter0_d" x="0.299988" y="0.300049" width="41.4" height="55.4" filterUnits="userSpaceOnUse" color-interpolation-filters="sRGB">
<feFlood flood-opacity="0" result="BackgroundImageFix"/>
<feColorMatrix in="SourceAlpha" type="matrix" values="0 0 0 0 0 0 0 0 0 0 0 0 0 0 0 0 0 0 127 0"/>
<feOffset dy="2"/>
<feGaussianBlur stdDeviation="2"/>
<feColorMatrix type="matrix" values="0 0 0 0 0 0 0 0 0 0 0 0 0 0 0 0 0 0 0.1 0"/>
<feBlend mode="normal" in2="BackgroundImageFix" result="effect1_dropShadow"/>
<feBlend mode="normal" in="SourceGraphic" in2="effect1_dropShadow" result="shape"/>
</filter>
</defs>
</svg>
