<svg width="319" height="278" viewBox="0 0 319 278" fill="none" xmlns="http://www.w3.org/2000/svg">
<g clip-path="url(#clip0)">
<path d="M97.7486 278L269.523 270.889L294.999 151.081L120.631 152.497L94.5737 277.929" fill="url(#paint0_linear)"/>
<path d="M196.988 229.238C202.739 229.238 207.401 224.296 207.401 218.2C207.401 212.104 202.739 207.163 196.988 207.163C191.237 207.163 186.575 212.104 186.575 218.2C186.575 224.296 191.237 229.238 196.988 229.238Z" fill="white"/>
<path d="M96.2351 269.126L2.46824 269.027C2.19425 269.026 1.92791 269.118 1.71347 269.289C1.49902 269.46 1.34937 269.699 1.28932 269.966L0.0281046 275.606C-0.0104714 275.781 -0.00931679 275.962 0.0314515 276.137C0.0722197 276.311 0.151592 276.474 0.263688 276.614C0.375783 276.754 0.517751 276.866 0.67913 276.944C0.840509 277.021 1.01715 277.061 1.19608 277.061L94.6121 277.918C94.8816 277.921 95.1444 277.834 95.3583 277.669C95.5721 277.505 95.7245 277.273 95.791 277.012L97.4031 270.614C97.4475 270.437 97.4507 270.252 97.4127 270.073C97.3746 269.895 97.2962 269.727 97.1834 269.584C97.0707 269.44 96.9266 269.324 96.7623 269.245C96.5979 269.165 96.4176 269.125 96.2351 269.126Z" fill="url(#paint1_linear)"/>
<path d="M117.758 149.214L292.131 148C292.255 147.999 292.378 148.026 292.49 148.08C292.602 148.133 292.701 148.211 292.778 148.308L295.01 151.081L121.322 152.486C121.131 152.488 120.947 152.557 120.801 152.68C120.654 152.803 120.556 152.974 120.521 153.162L97.8912 277.292C97.8559 277.485 97.7524 277.66 97.5995 277.784C97.4466 277.908 97.2543 277.973 97.0577 277.967L95.5169 277.923C95.3991 277.92 95.2833 277.892 95.1774 277.84C95.0715 277.788 94.978 277.714 94.9031 277.623C94.8282 277.532 94.7738 277.426 94.7434 277.312C94.7131 277.198 94.7076 277.079 94.7273 276.962L116.327 150.444C116.378 150.101 116.551 149.788 116.814 149.562C117.076 149.336 117.411 149.212 117.758 149.214Z" fill="url(#paint2_linear)"/>
</g>
<path d="M257.953 147.559C232.607 146.129 211.38 125.798 210.54 102.148C209.701 78.4984 229.567 60.4851 254.913 61.9146C280.259 63.3441 301.487 83.6751 302.326 107.325C303.166 130.975 283.299 148.988 257.953 147.559Z" fill="#8E5A30"/>
<path d="M286.938 108.679C279.591 100.394 280.043 90.6076 286.865 85.5967C293.688 80.5857 304.294 82.2514 311.641 90.5365C318.991 98.8242 317.172 119.773 317.172 119.773C317.172 119.773 294.288 116.967 286.938 108.679Z" fill="#8E5A30"/>
<path d="M202.406 83.7833C209.413 76.4921 220.004 76.3179 227.097 82.3214C234.191 88.3249 235.095 98.2285 228.088 105.52C221.079 112.813 198.192 112.398 198.192 112.398C198.192 112.398 195.397 91.0767 202.406 83.7833Z" fill="#8E5A30"/>
<path d="M258.101 146.742C240.386 145.757 225.321 127.361 224.454 105.653C223.587 83.9458 237.245 67.1474 254.961 68.1329C272.676 69.1184 287.741 87.5147 288.608 109.222C289.475 130.929 275.817 147.728 258.101 146.742Z" fill="#DBC793"/>
<path d="M198.228 50.3704C196.816 28.9145 220.476 12.176 251.074 12.984C281.673 13.7921 307.622 31.8406 309.034 53.2965C310.445 74.7525 286.785 91.491 256.187 90.6829C225.589 89.8749 199.639 71.8264 198.228 50.3704Z" fill="#8E5A30"/>
<path d="M271.398 18.5579L296.631 33.604C297.805 34.3035 299.357 33.7349 299.341 32.2494C299.329 31.0591 298.984 7.20557 298.953 5.1683C298.932 3.83027 297.435 2.9604 296.219 3.53843C294.863 4.18246 272.924 14.8387 271.368 15.63C270.228 16.2088 270.105 17.7867 271.397 18.5574L271.398 18.5579Z" fill="#8E5A30"/>
<path d="M207.651 30.2908L230.587 18.2311C231.654 17.6705 231.713 16.1668 230.363 15.4212C229.282 14.8233 207.575 2.92807 205.721 1.91322C204.503 1.24711 203.163 1.97366 203.236 3.21958C203.318 4.60872 204.85 27.2005 204.991 28.8208C205.094 30.0077 206.476 30.9085 207.65 30.2908L207.651 30.2908Z" fill="#8E5A30"/>
<path d="M241.646 58.8805C241.129 59.3155 241.132 60.0932 241.651 60.6175L252.941 72.0086C253.461 72.5329 254.301 72.605 254.818 72.1701L266.048 62.717C266.565 62.2819 266.563 61.5041 266.043 60.98L254.752 49.5883C254.233 49.0641 253.393 48.9918 252.876 49.4269L241.646 58.8806L241.646 58.8805Z" fill="#DBC793"/>
<path d="M254.206 49.5239C250.412 39.728 255.621 29.6868 265.841 27.0964C276.062 24.506 287.422 30.3472 291.216 40.1431C295.01 49.939 289.8 59.9801 279.58 62.5705C269.36 65.161 258 59.3198 254.206 49.5239Z" fill="#F3FBFD"/>
<path d="M214.904 47.2984C211.122 37.5347 216.319 27.5305 226.512 24.9535C236.705 22.3765 248.034 28.2026 251.816 37.9663C255.599 47.7301 250.401 57.7342 240.208 60.3112C230.015 62.8882 218.686 57.0622 214.904 47.2984Z" fill="#F3FBFD"/>
<path d="M263.368 48.0754C260.882 44.294 261.985 39.6451 265.832 37.6918C269.679 35.7385 274.814 37.2205 277.301 41.0019C279.787 44.7833 278.684 49.4322 274.837 51.3855C270.99 53.3388 265.855 51.8568 263.368 48.0754Z" fill="black"/>
<path d="M230.935 46.6523C228.455 42.8827 229.553 38.2474 233.388 36.299C237.223 34.3505 242.342 35.8268 244.822 39.5964C247.302 43.3659 246.204 48.0013 242.369 49.9497C238.534 51.8981 233.415 50.4218 230.935 46.6523Z" fill="black"/>
<path d="M272.925 146.307C272.983 148.203 273.022 149.668 273.494 150.423C273.94 151.222 274.819 151.31 275.957 151.438C277.093 151.481 277.972 151.524 278.392 150.791C278.839 150.105 278.828 148.641 278.821 146.75C278.763 144.855 278.725 143.39 278.253 142.634C277.807 141.836 276.927 141.748 275.79 141.619C274.654 141.577 273.775 141.533 273.355 142.267C272.907 142.953 272.919 144.416 272.925 146.307Z" fill="#E45858"/>
<path d="M269.335 146.641C269.399 148.538 269.442 150.005 269.917 150.76C270.365 151.558 271.246 151.644 272.385 151.77C273.522 151.81 274.402 151.851 274.82 151.116C275.266 150.428 275.25 148.963 275.237 147.07C275.173 145.173 275.13 143.706 274.655 142.951C274.206 142.153 273.326 142.066 272.187 141.94C271.05 141.901 270.17 141.859 269.752 142.594C269.306 143.283 269.322 144.747 269.335 146.641Z" fill="#E45858"/>
<path d="M263.543 146.225C263.607 148.122 263.65 149.589 264.125 150.344C264.574 151.142 265.454 151.228 266.593 151.355C267.73 151.394 268.61 151.436 269.028 150.701C269.474 150.012 269.458 148.547 269.445 146.654C269.381 144.757 269.338 143.29 268.863 142.535C268.415 141.737 267.534 141.651 266.395 141.525C265.258 141.485 264.378 141.443 263.96 142.178C263.514 142.867 263.53 144.331 263.543 146.225Z" fill="#E45858"/>
<path d="M248.006 144.983C248.07 146.881 248.112 148.347 248.587 149.102C249.036 149.9 249.917 149.987 251.056 150.113C252.193 150.152 253.072 150.194 253.491 149.459C253.936 148.771 253.921 147.306 253.909 145.412C253.845 143.515 253.802 142.049 253.327 141.294C252.879 140.496 251.998 140.41 250.859 140.283C249.722 140.244 248.842 140.202 248.424 140.937C247.978 141.626 247.994 143.09 248.006 144.983Z" fill="#E45858"/>
<path d="M242.581 144.692C242.646 146.589 242.689 148.056 243.163 148.811C243.612 149.609 244.493 149.695 245.632 149.821C246.769 149.861 247.649 149.902 248.067 149.167C248.513 148.479 248.496 147.014 248.484 145.121C248.42 143.224 248.377 141.757 247.902 141.002C247.453 140.204 246.573 140.117 245.434 139.991C244.296 139.952 243.417 139.91 242.999 140.645C242.553 141.333 242.569 142.798 242.581 144.692Z" fill="#E45858"/>
<path d="M236.973 144.338C237.037 146.235 237.08 147.702 237.555 148.457C238.004 149.255 238.885 149.341 240.024 149.467C241.161 149.507 242.041 149.548 242.459 148.813C242.904 148.125 242.888 146.66 242.876 144.767C242.812 142.87 242.769 141.403 242.294 140.648C241.845 139.85 240.964 139.764 239.825 139.637C238.688 139.598 237.808 139.556 237.39 140.291C236.945 140.979 236.961 142.444 236.973 144.338Z" fill="#E45858"/>
<path d="M244.404 93.8078L238.06 99.6118L231.124 93.1647L231.375 98.3607L238.312 104.808L244.655 99.0038L244.404 93.8078Z" fill="#8E5A30"/>
<path d="M262.179 95.0866L255.835 100.891L248.898 94.4435L249.149 99.6395L256.086 106.087L262.43 100.283L262.179 95.0866Z" fill="#8E5A30"/>
<path d="M281.115 96.5541L274.773 102.357L267.837 95.9098L268.089 101.105L275.025 107.552L281.367 101.749L281.115 96.5541Z" fill="#8E5A30"/>
<path d="M273.415 109.098L267.073 114.901L260.139 108.455L260.39 113.65L267.324 120.096L273.666 114.293L273.415 109.098Z" fill="#8E5A30"/>
<path d="M253.665 107.673L247.305 113.463L240.393 107.011L240.627 112.202L247.539 118.655L253.899 112.865L253.665 107.673Z" fill="#8E5A30"/>
<path d="M233.05 22.678H223.549C213.298 22.678 204.988 26.0022 204.988 30.1029V57.9444C204.988 62.0451 213.298 65.3693 223.549 65.3693H233.05C243.301 65.3693 251.611 62.0451 251.611 57.9444V30.1029C251.611 26.0022 243.301 22.678 233.05 22.678Z" stroke="black"/>
<path d="M282.427 22.678H272.926C262.675 22.678 254.365 26.0022 254.365 30.1029V57.9444C254.365 62.0451 262.675 65.3693 272.926 65.3693H282.427C292.678 65.3693 300.988 62.0451 300.988 57.9444V30.1029C300.988 26.0022 292.678 22.678 282.427 22.678Z" stroke="black"/>
<defs>
<linearGradient id="paint0_linear" x1="0.000753325" y1="214.538" x2="294.994" y2="214.538" gradientUnits="userSpaceOnUse">
<stop stop-color="#E5A4ED"/>
<stop offset="1" stop-color="#6246EA"/>
</linearGradient>
<linearGradient id="paint1_linear" x1="0.000695337" y1="273.475" x2="97.4415" y2="273.475" gradientUnits="userSpaceOnUse">
<stop stop-color="#E5A4ED"/>
<stop offset="1" stop-color="#7A5BF5"/>
</linearGradient>
<linearGradient id="paint2_linear" x1="94.7163" y1="212.995" x2="294.999" y2="212.995" gradientUnits="userSpaceOnUse">
<stop stop-color="#E5A4ED"/>
<stop offset="1" stop-color="#6246EA"/>
</linearGradient>
<clipPath id="clip0">
<rect width="295" height="130" fill="white" transform="translate(0 148)"/>
</clipPath>
</defs>
</svg>
