<svg width="123" height="152" viewBox="0 0 123 152" fill="none" xmlns="http://www.w3.org/2000/svg">
<path d="M61.9533 147.559C36.6074 146.129 15.3799 125.798 14.5404 102.148C13.7008 78.4984 33.5672 60.4851 58.9131 61.9146C84.259 63.3441 105.487 83.6751 106.326 107.325C107.166 130.975 87.2992 148.988 61.9533 147.559Z" fill="#8E5A30"/>
<path d="M90.9384 108.679C83.5913 100.394 84.0426 90.6076 90.8653 85.5967C97.6881 80.5857 108.294 82.2514 115.641 90.5365C122.991 98.8242 121.172 119.773 121.172 119.773C121.172 119.773 98.2876 116.967 90.9384 108.679Z" fill="#8E5A30"/>
<path d="M6.40604 83.7833C13.4133 76.4921 24.0042 76.3179 31.0974 82.3214C38.1905 88.3249 39.0952 98.2285 32.0879 105.52C25.0785 112.813 2.19228 112.398 2.19228 112.398C2.19228 112.398 -0.603359 91.0767 6.40604 83.7833Z" fill="#8E5A30"/>
<path d="M62.1013 146.742C44.3856 145.757 29.3212 127.361 28.454 105.653C27.5867 83.9458 41.245 67.1474 58.9607 68.1329C76.6763 69.1184 91.7407 87.5147 92.608 109.222C93.4752 130.929 79.8169 147.728 62.1013 146.742Z" fill="#DBC793"/>
<path d="M2.22758 50.3704C0.815828 28.9145 24.4761 12.176 55.0744 12.984C85.6726 13.7921 111.622 31.8406 113.034 53.2965C114.445 74.7525 90.785 91.491 60.1867 90.6829C29.5885 89.8749 3.63932 71.8264 2.22758 50.3704Z" fill="#8E5A30"/>
<path d="M75.3978 18.5579L100.631 33.604C101.805 34.3035 103.357 33.7349 103.341 32.2494C103.329 31.0591 102.984 7.20557 102.953 5.1683C102.932 3.83027 101.435 2.9604 100.219 3.53843C98.863 4.18246 76.9239 14.8387 75.368 15.63C74.2278 16.2088 74.1049 17.7867 75.3974 18.5574L75.3978 18.5579Z" fill="#8E5A30"/>
<path d="M11.651 30.2908L34.5873 18.2311C35.6536 17.6705 35.7127 16.1668 34.3632 15.4212C33.282 14.8233 11.5752 2.92807 9.72075 1.91322C8.5026 1.24711 7.1627 1.97366 7.23617 3.21958C7.31758 4.60872 8.85038 27.2005 8.9913 28.8208C9.09352 30.0077 10.4756 30.9085 11.6503 30.2908L11.651 30.2908Z" fill="#8E5A30"/>
<path d="M45.6464 58.8805C45.1294 59.3155 45.1317 60.0932 45.6514 60.6175L56.9414 72.0086C57.4607 72.5329 58.3012 72.605 58.8178 72.1701L70.048 62.717C70.565 62.2819 70.5627 61.5041 70.043 60.98L58.7524 49.5883C58.233 49.0641 57.3925 48.9918 56.876 49.4269L45.6464 58.8806L45.6464 58.8805Z" fill="#DBC793"/>
<path d="M58.2057 49.5239C54.4119 39.728 59.6214 29.6868 69.8415 27.0964C80.0616 24.506 91.4222 30.3472 95.216 40.1431C99.0099 49.939 93.8004 59.9801 83.5802 62.5705C73.3601 65.161 61.9996 59.3198 58.2057 49.5239Z" fill="#F3FBFD"/>
<path d="M18.9042 47.2984C15.1221 37.5347 20.3192 27.5305 30.5122 24.9535C40.7052 22.3765 52.0343 28.2026 55.8164 37.9663C59.5985 47.7301 54.4015 57.7342 44.2085 60.3112C34.0154 62.8882 22.6864 57.0622 18.9042 47.2984Z" fill="#F3FBFD"/>
<path d="M67.3684 48.0754C64.8818 44.294 65.9849 39.6451 69.8322 37.6918C73.6795 35.7385 78.8141 37.2205 81.3007 41.0019C83.7873 44.7833 82.6843 49.4322 78.837 51.3855C74.9897 53.3388 69.855 51.8568 67.3684 48.0754Z" fill="black"/>
<path d="M34.9348 46.6523C32.4549 42.8827 33.5534 38.2474 37.3883 36.299C41.2232 34.3505 46.3424 35.8268 48.8223 39.5964C51.3022 43.3659 50.2037 48.0013 46.3687 49.9497C42.5338 51.8981 37.4146 50.4218 34.9348 46.6523Z" fill="black"/>
<path d="M76.9252 146.307C76.9833 148.203 77.0216 149.668 77.4936 150.423C77.9396 151.222 78.8193 151.31 79.9568 151.438C81.093 151.481 81.9717 151.524 82.3916 150.791C82.8391 150.105 82.8276 148.641 82.8215 146.75C82.7632 144.855 82.7249 143.39 82.2529 142.634C81.8069 141.836 80.9274 141.748 79.7898 141.619C78.6537 141.577 77.7748 141.533 77.3549 142.267C76.9074 142.953 76.9189 144.416 76.9252 146.307Z" fill="#E45858"/>
<path d="M73.3346 146.641C73.3988 148.538 73.4417 150.005 73.9166 150.76C74.3654 151.558 75.2462 151.644 76.3851 151.77C77.5224 151.81 78.402 151.851 78.82 151.116C79.2657 150.428 79.2496 148.963 79.2374 147.07C79.1731 145.173 79.1301 143.706 78.6553 142.951C78.2065 142.153 77.3259 142.066 76.1869 141.94C75.0497 141.901 74.1698 141.859 73.7519 142.594C73.3062 143.283 73.3223 144.747 73.3346 146.641Z" fill="#E45858"/>
<path d="M67.5427 146.225C67.6069 148.122 67.6499 149.589 68.1247 150.344C68.5735 151.142 69.4543 151.228 70.5932 151.355C71.7305 151.394 72.6101 151.436 73.0281 150.701C73.4738 150.012 73.4576 148.547 73.4455 146.654C73.3812 144.757 73.3382 143.29 72.8634 142.535C72.4145 141.737 71.534 141.651 70.395 141.525C69.2578 141.485 68.378 141.443 67.96 142.178C67.5143 142.867 67.5305 144.331 67.5427 146.225Z" fill="#E45858"/>
<path d="M52.0059 144.983C52.0697 146.881 52.1124 148.347 52.5871 149.102C53.0358 149.9 53.9165 149.987 55.0555 150.113C56.1928 150.152 57.0725 150.194 57.4905 149.459C57.9364 148.771 57.9205 147.306 57.9087 145.412C57.8448 143.515 57.8021 142.049 57.3274 141.294C56.8787 140.496 55.9981 140.41 54.8591 140.283C53.7218 140.244 52.842 140.202 52.4239 140.937C51.9781 141.626 51.994 143.09 52.0059 144.983Z" fill="#E45858"/>
<path d="M46.5814 144.692C46.6456 146.589 46.6886 148.056 47.1634 148.811C47.6123 149.609 48.493 149.695 49.632 149.821C50.7692 149.861 51.6489 149.902 52.0668 149.167C52.5125 148.479 52.4964 147.014 52.4843 145.121C52.42 143.224 52.377 141.757 51.9021 141.002C51.4533 140.204 50.5727 140.117 49.4337 139.991C48.2965 139.952 47.4167 139.91 46.9987 140.645C46.553 141.333 46.5692 142.798 46.5814 144.692Z" fill="#E45858"/>
<path d="M40.9732 144.338C41.0374 146.235 41.0804 147.702 41.5552 148.457C42.004 149.255 42.8847 149.341 44.0237 149.467C45.1609 149.507 46.0406 149.548 46.4585 148.813C46.9043 148.125 46.8881 146.66 46.876 144.767C46.8117 142.87 46.7687 141.403 46.2939 140.648C45.845 139.85 44.9644 139.764 43.8255 139.637C42.6883 139.598 41.8084 139.556 41.3905 140.291C40.9448 140.979 40.9609 142.444 40.9732 144.338Z" fill="#E45858"/>
<path d="M48.4042 93.8078L42.0605 99.6118L35.1237 93.1647L35.3749 98.3607L42.3118 104.808L48.6555 99.0038L48.4042 93.8078Z" fill="#8E5A30"/>
<path d="M66.1785 95.0866L59.8348 100.891L52.8979 94.4435L53.1492 99.6395L60.086 106.087L66.4298 100.283L66.1785 95.0866Z" fill="#8E5A30"/>
<path d="M85.1155 96.5541L78.7732 102.357L71.8373 95.9098L72.0888 101.105L79.0248 107.552L85.367 101.749L85.1155 96.5541Z" fill="#8E5A30"/>
<path d="M77.4152 109.098L71.0729 114.901L64.1389 108.455L64.3896 113.65L71.3237 120.096L77.6659 114.293L77.4152 109.098Z" fill="#8E5A30"/>
<path d="M57.6652 107.673L51.305 113.463L44.3932 107.011L44.6269 112.202L51.5387 118.655L57.8989 112.865L57.6652 107.673Z" fill="#8E5A30"/>
<path d="M37.05 22.678H27.5495C17.2984 22.678 8.98822 26.0022 8.98822 30.1029V57.9444C8.98822 62.0451 17.2984 65.3693 27.5495 65.3693H37.05C47.3011 65.3693 55.6113 62.0451 55.6113 57.9444V30.1029C55.6113 26.0022 47.3011 22.678 37.05 22.678Z" stroke="black"/>
<path d="M86.427 22.678H76.9264C66.6753 22.678 58.3652 26.0022 58.3652 30.1029V57.9444C58.3652 62.0451 66.6753 65.3693 76.9264 65.3693H86.427C96.6781 65.3693 104.988 62.0451 104.988 57.9444V30.1029C104.988 26.0022 96.6781 22.678 86.427 22.678Z" stroke="black"/>
</svg>
