<svg width="54" height="58" viewBox="0 0 54 58" fill="none" xmlns="http://www.w3.org/2000/svg">
<g filter="url(#filter2_d)">
<path d="M23.2144 10.2139L23.2144 10.2154C23.2187 12.1904 22.4623 14.0912 21.1022 15.5231C19.742 16.9551 17.8826 17.8082 15.91 17.9054L15.8882 17.9064L15.8666 17.9094C15.7496 17.9255 15.6316 17.932 15.5136 17.9288L15.5136 17.9286L15.5019 17.9286C13.5653 17.9213 11.7022 17.1859 10.2828 15.8684C8.86335 14.5509 7.99139 12.7477 7.84011 10.8169C7.68884 8.88619 8.26931 6.96918 9.46623 5.44667C10.6632 3.92416 12.3889 2.90754 14.3008 2.59876L14.3008 2.59876L14.3035 2.59831C14.6987 2.53227 15.0987 2.49939 15.4993 2.50001L15.5005 2.50001C16.5137 2.4992 17.5172 2.69817 18.4534 3.08554C19.3897 3.47291 20.2404 4.04108 20.9568 4.75754C21.6733 5.47401 22.2415 6.3247 22.6288 7.26096C23.0162 8.19722 23.2152 9.20066 23.2144 10.2139Z" fill="#E45858" stroke="#2B2C34"/>
<path d="M46.2144 10.2139L46.2144 10.2154C46.2187 12.1904 45.4623 14.0912 44.1022 15.5231C42.742 16.9551 40.8826 17.8082 38.91 17.9054L38.8882 17.9064L38.8665 17.9094C38.7496 17.9255 38.6316 17.932 38.5136 17.9288L38.5136 17.9286L38.5019 17.9286C36.5653 17.9213 34.7022 17.1859 33.2828 15.8684C31.8633 14.5509 30.9914 12.7477 30.8401 10.8169C30.6888 8.88619 31.2693 6.96918 32.4662 5.44667C33.6631 3.92416 35.3889 2.90754 37.3008 2.59876L37.3008 2.59876L37.3035 2.59831C37.6987 2.53227 38.0987 2.49939 38.4993 2.50001L38.5005 2.50001C39.5137 2.4992 40.5172 2.69817 41.4534 3.08554C42.3897 3.47291 43.2404 4.04108 43.9568 4.75754C44.6733 5.47401 45.2415 6.3247 45.6288 7.26096C46.0162 8.19722 46.2152 9.20066 46.2144 10.2139Z" fill="#E45858" stroke="#2B2C34"/>
<path d="M38.8815 18.9414L38.8938 18.9425L38.9061 18.943C44.7692 19.1708 49.5 24.2466 49.5 30.5405V38.6737H46.7143H46.2143V39.1737V50.7857H30.7857V39.1737V38.6737H30.2857H23.7143H23.2143V39.1737V50.7857H7.78571V39.1737V38.6737H7.28571H4.5V30.5405C4.5 24.1015 9.45213 18.9286 15.5 18.9286V18.9286L15.5094 18.9285C15.6335 18.9261 15.7577 18.9305 15.8815 18.9414L15.8938 18.9425L15.9061 18.943C21.7692 19.1708 26.5 24.2466 26.5 30.5405H27H27.5C27.5 24.1015 32.4521 18.9286 38.5 18.9286V18.9286L38.5094 18.9285C38.6335 18.9261 38.7577 18.9305 38.8815 18.9414Z" fill="#E45858" stroke="#2B2C34"/>
</g>
<defs>
<filter id="filter2_d" x="0" y="0" width="54" height="57.2857" filterUnits="userSpaceOnUse" color-interpolation-filters="sRGB">
<feFlood flood-opacity="0" result="BackgroundImageFix"/>
<feColorMatrix in="SourceAlpha" type="matrix" values="0 0 0 0 0 0 0 0 0 0 0 0 0 0 0 0 0 0 127 0"/>
<feOffset dy="2"/>
<feGaussianBlur stdDeviation="2"/>
<feColorMatrix type="matrix" values="0 0 0 0 0 0 0 0 0 0 0 0 0 0 0 0 0 0 0.1 0"/>
<feBlend mode="normal" in2="BackgroundImageFix" result="effect1_dropShadow"/>
<feBlend mode="normal" in="SourceGraphic" in2="effect1_dropShadow" result="shape"/>
</filter>
</defs>
</svg>
