<svg width="58" height="52" viewBox="0 0 58 52" fill="none" xmlns="http://www.w3.org/2000/svg">
<g filter="url(#filter3_d)">
<path d="M42.3433 35.5861H41.2133C38.443 29.3829 33.2129 25.7589 29.0477 25.7589C24.8786 25.7589 19.7629 29.3879 16.9408 35.6439H16.2724H15.4053H9.1621C8.57965 35.6439 8.0808 35.1451 8.0808 34.5626V7.1621C8.0808 6.57965 8.57965 6.0808 9.1621 6.0808H48.9333C49.5158 6.0808 50.0146 6.57965 50.0146 7.1621V34.5048C50.0146 35.0873 49.5158 35.5861 48.9333 35.5861H43.2104H42.3433ZM53.4015 34.5626V7.1621C53.4015 4.68359 51.4174 2.69394 48.9911 2.69394H9.1621C6.68079 2.69394 4.69394 4.68079 4.69394 7.1621V34.5048C4.69394 36.9889 6.74137 38.973 9.1621 38.973H15.3475H18.2378H23.539V42.5808H17.7175C17.2595 42.5808 16.8912 42.949 16.8912 43.4071V44.2742C16.8912 44.7323 17.2595 45.1005 17.7175 45.1005H40.3779C40.836 45.1005 41.2042 44.7323 41.2042 44.2742V43.4649C41.2042 43.0068 40.836 42.6386 40.3779 42.6386H34.5564V39.0308H40.3201H43.2104H48.9333C51.4174 39.0308 53.4015 36.9834 53.4015 34.5626Z" fill="#6246EA" stroke="#2B2C34" stroke-width="0.612124"/>
<path d="M36.8687 16.5269C36.8687 12.2551 33.3804 8.7059 29.0477 8.7059C24.7135 8.7059 21.2846 12.1988 21.2846 16.5269C21.2846 20.7971 24.7713 24.3478 29.0477 24.3478C33.3195 24.3478 36.8687 20.8595 36.8687 16.5269Z" fill="#6246EA" stroke="#2B2C34" stroke-width="0.612124"/>
</g>
<defs>
<filter id="filter3_d" x="0.387878" y="0.387817" width="57.3197" height="51.0187" filterUnits="userSpaceOnUse" color-interpolation-filters="sRGB">
<feFlood flood-opacity="0" result="BackgroundImageFix"/>
<feColorMatrix in="SourceAlpha" type="matrix" values="0 0 0 0 0 0 0 0 0 0 0 0 0 0 0 0 0 0 127 0"/>
<feOffset dy="2"/>
<feGaussianBlur stdDeviation="2"/>
<feColorMatrix type="matrix" values="0 0 0 0 0 0 0 0 0 0 0 0 0 0 0 0 0 0 0.1 0"/>
<feBlend mode="normal" in2="BackgroundImageFix" result="effect1_dropShadow"/>
<feBlend mode="normal" in="SourceGraphic" in2="effect1_dropShadow" result="shape"/>
</filter>
</defs>
</svg>
